<?xml version="1.0" encoding="UTF-8"?>
<svg version="1.1" xmlns="http://www.w3.org/2000/svg" width="500" height="500">
<path d="M0 0 C0.87941263 -0.00297112 1.75882527 -0.00594224 2.66488677 -0.0090034 C5.60560582 -0.01766068 8.54628401 -0.01919613 11.48701477 -0.02069092 C13.59810472 -0.0253212 15.70919384 -0.03034614 17.82028198 -0.03573608 C23.55188712 -0.04884195 29.28348056 -0.05530152 35.01509833 -0.05974674 C38.59825087 -0.06268043 42.18140023 -0.06678581 45.76455116 -0.07125092 C56.98201408 -0.08492115 68.19946972 -0.0945901 79.41694039 -0.09845281 C92.35356223 -0.10293233 105.29007836 -0.12047742 118.22666806 -0.1494534 C128.23452364 -0.17108921 138.24234951 -0.18115811 148.25022823 -0.18249393 C154.22364005 -0.1835406 160.19695244 -0.1894192 166.17033958 -0.20731354 C171.79199978 -0.22382696 177.41348612 -0.22593377 183.03516197 -0.21717453 C185.09301215 -0.21640591 187.15087181 -0.2207237 189.20869827 -0.23063278 C207.59094111 -0.31392477 221.07666792 1.81105731 234.92573547 14.82403564 C244.09150923 24.35965642 247.56035787 37.41179488 247.36323547 50.40216064 C246.37892065 63.18002524 240.5715266 74.44950414 231.15229797 83.14044189 C230.49229797 83.14044189 229.83229797 83.14044189 229.15229797 83.14044189 C229.15229797 83.80044189 229.15229797 84.46044189 229.15229797 85.14044189 C219.03559329 93.29299913 207.76189208 94.2686007 195.25386047 94.35137939 C192.89447848 94.37944339 190.53510357 94.40810783 188.17573547 94.43731689 C184.47391424 94.47856829 180.77222589 94.51547797 177.07026672 94.54180908 C173.48535766 94.56948809 169.90103998 94.61535173 166.31636047 94.66387939 C165.21716278 94.66713226 164.11796509 94.67038513 162.98545837 94.67373657 C154.7466909 94.80483196 148.82515673 96.55738271 141.53120422 100.44512939 C140.34494446 101.07354736 140.34494446 101.07354736 139.13471985 101.71466064 C138.33614563 102.14391846 137.53757141 102.57317627 136.71479797 103.01544189 C135.52273743 103.64772705 135.52273743 103.64772705 134.30659485 104.29278564 C131.08916167 106.00491038 127.88069176 107.72004291 124.72383118 109.54205322 C123.5553363 110.2153064 123.5553363 110.2153064 122.36323547 110.90216064 C121.67149231 111.30910156 120.97974915 111.71604248 120.26704407 112.13531494 C116.79417184 113.78595163 112.99077327 114.45693352 109.15229797 114.14044189 C105.75741841 110.74556233 106.68539719 105.9480627 106.49604797 101.32794189 C106.4795819 98.04958354 106.4795819 98.04958354 104.15229797 96.14044189 C101.27632238 95.17795801 98.61900943 95.01046469 95.60050964 94.99568176 C94.69231979 94.98878326 93.78412994 94.98188477 92.84841919 94.97477722 C91.85928024 94.97216385 90.8701413 94.96955048 89.85102844 94.96685791 C88.80336807 94.9601709 87.7557077 94.95348389 86.67630005 94.94659424 C84.40043678 94.93254525 82.12455942 94.92065071 79.84867477 94.91064644 C76.2414263 94.89422037 72.63428134 94.87097953 69.02708435 94.8457489 C58.77037228 94.77503253 48.51361712 94.71497994 38.25679016 94.66363525 C31.98217385 94.63174664 25.70767546 94.59044216 19.43315506 94.54343987 C17.04668943 94.52747448 14.66019664 94.51512785 12.27369308 94.50653267 C8.92565274 94.49430439 5.57788661 94.47012156 2.22993469 94.44342041 C1.25294113 94.44283127 0.27594757 94.44224213 -0.73065186 94.44163513 C-15.11683697 94.2905074 -27.32276477 90.52359226 -37.72660828 80.29278564 C-46.77556643 70.46206005 -50.21053399 60.42011595 -50.16020203 47.20294189 C-50.17631531 46.36053955 -50.19242859 45.51813721 -50.20903015 44.65020752 C-50.21847391 32.38276148 -44.91956076 22.17398692 -36.84770203 13.14044189 C-26.70038546 3.21113408 -13.80575304 -0.01466948 0 0 Z M37.46479797 36.51544189 C33.76420987 40.71610947 32.68866515 43.35422451 32.82807922 49.11309814 C33.53894262 53.55813552 36.74503638 57.32574754 40.15229797 60.14044189 C45.04027555 61.76976775 50.51767923 62.38563579 55.29292297 60.12872314 C58.31003335 58.01801358 60.08440787 56.24227705 62.15229797 53.14044189 C62.50828961 50.33899735 62.50828961 50.33899735 62.46479797 47.26544189 C62.48155579 46.23677002 62.4983136 45.20809814 62.51557922 44.14825439 C61.99445915 39.83360436 60.41806903 37.32726673 57.27339172 34.37872314 C50.57278466 30.4669507 43.07021606 31.56181661 37.46479797 36.51544189 Z M87.90229797 37.70294189 C84.53631442 42.39127613 84.5347436 46.47807711 85.15229797 52.14044189 C86.93149108 55.90411962 88.44461352 57.64670855 91.83979797 60.01544189 C97.06881233 61.79133356 101.85475067 62.16157403 106.96479797 59.89044189 C111.55086209 56.24794944 111.55086209 56.24794944 114.15229797 51.14044189 C114.68060862 45.71509794 114.68084261 41.55112268 111.15229797 37.14044189 C108.32807863 33.96319513 106.41871134 32.36114132 102.06636047 31.93731689 C95.6257824 31.80542792 92.28559282 32.7108561 87.90229797 37.70294189 Z " fill="#428AF6" transform="translate(149.8477020263672,209.85955810546875)"/>
<path d="M0 0 C0.8814192 -0.00453111 1.76283841 -0.00906223 2.67096728 -0.01373065 C5.59463911 -0.02628851 8.5181226 -0.02475989 11.44181824 -0.02310181 C13.55025469 -0.02909239 15.65868895 -0.03589915 17.76712036 -0.04345703 C23.47384245 -0.06106896 29.1805045 -0.06581035 34.88725114 -0.0670886 C38.45771481 -0.06851334 42.02816337 -0.07278901 45.59862328 -0.07808304 C58.06915119 -0.0965665 70.53963645 -0.10475565 83.01017761 -0.10317993 C94.61179773 -0.10197858 106.2132318 -0.12308415 117.81480485 -0.15466726 C127.79560301 -0.18086435 137.77634051 -0.1915458 147.75717276 -0.19026911 C153.70937539 -0.18976055 159.66141251 -0.19538557 165.6135807 -0.21662521 C171.21401081 -0.23606573 176.81411848 -0.23609225 182.41456032 -0.22159195 C184.46189854 -0.21951007 186.50925726 -0.22416745 188.55656052 -0.23631287 C206.4241661 -0.33538906 220.49177813 2.06012071 234.43473816 14.32992554 C244.01963323 24.56151233 247.18949931 38.19825175 246.92692566 51.77914429 C246.01707991 64.88385808 239.72944366 74.67494958 230.57926941 83.80648804 C228.58332042 85.34563221 227.15001262 85.86292374 224.68473816 86.26742554 C224.68473816 86.92742554 224.68473816 87.58742554 224.68473816 88.26742554 C222.58089118 89.08075297 220.47664959 89.89305971 218.37223816 90.70492554 C217.20048035 91.15738647 216.02872253 91.60984741 214.82145691 92.07601929 C209.87564901 93.95456401 205.74003738 94.47145977 200.49479675 94.57943726 C199.65219929 94.59992756 198.80960182 94.62041786 197.9414711 94.64152908 C195.11380389 94.70766506 192.28604969 94.76554492 189.45817566 94.82211304 C188.47030437 94.84304897 187.48243309 94.86398491 186.46462631 94.88555527 C160.41473296 95.42932945 134.36413516 95.42363049 108.30973816 95.39242554 C105.81897485 95.39014717 103.3282115 95.38790957 100.83744812 95.38571167 C85.17094889 95.3702198 69.50457266 95.33421713 53.83816528 95.27857971 C50.85900517 95.26804195 47.87984335 95.25824515 44.90068054 95.24850464 C35.55003128 95.216084 26.20010521 95.16164395 16.84996033 95.05789185 C14.27714165 95.03130013 11.70425131 95.01081055 9.1313324 94.99697876 C-9.15709373 94.88637749 -23.97105592 94.00974584 -38.00276184 81.01742554 C-47.25596946 71.27042725 -51.69976733 58.79368602 -51.46760559 45.43148804 C-50.6717567 34.12635253 -46.58854493 24.86472861 -39.31526184 16.26742554 C-38.82541809 15.6705896 -38.33557434 15.07375366 -37.83088684 14.45883179 C-27.89968604 3.42143288 -14.29827725 -0.05518692 0 0 Z M41.87223816 38.57992554 C39.83808959 43.18352493 39.47690513 46.92805712 40.24723816 51.89242554 C42.08934714 56.21737707 43.84882116 57.60576884 47.68473816 60.26742554 C52.87138034 61.99630626 57.80301788 61.87099619 62.99723816 60.20492554 C66.98782754 57.32798901 69.14716806 54.05949879 70.06755066 49.27914429 C70.3662569 44.15135385 69.02711223 40.17345441 65.68473816 36.26742554 C61.53715157 32.62485597 57.28268921 31.61128741 51.82926941 31.88070679 C47.32844325 32.69233118 44.62089589 35.0730174 41.87223816 38.57992554 Z M101.37223816 38.45492554 C99.04782589 42.32894599 98.48619604 45.77243201 98.68473816 50.26742554 C100.50948261 55.64028421 103.63275887 58.74143589 108.68473816 61.26742554 C115.46881552 62.02396799 120.2862196 61.56420561 125.68473816 57.26742554 C128.43817241 52.55994117 129.36146695 48.68125587 128.68473816 43.26742554 C126.95625255 38.38033825 124.26050653 35.22768248 119.61051941 32.92758179 C112.00302047 30.31973732 106.94287378 33.18540535 101.37223816 38.45492554 Z " fill="#42B3DF" transform="translate(150.3152618408203,94.73257446289063)"/>
<path d="M0 0 C1.92525835 -0.00643644 3.85051574 -0.01316542 5.77577209 -0.02017212 C9.78909579 -0.03208463 13.80233372 -0.0358585 17.81567383 -0.03466797 C22.95947084 -0.03446354 28.10272304 -0.06191943 33.24639034 -0.09621239 C37.21233155 -0.11841787 41.1781394 -0.12250769 45.14413643 -0.12144852 C47.04157984 -0.12380813 48.93902673 -0.13265192 50.83640862 -0.14811325 C53.48109728 -0.16767223 56.12457975 -0.16197863 58.76928711 -0.14990234 C59.55113876 -0.16114136 60.33299042 -0.17238037 61.13853455 -0.18395996 C64.67806119 -0.14281301 66.65249452 0.0458745 69.51271057 2.21395874 C71.03515625 4.3359375 71.03515625 4.3359375 71.66015625 6.7734375 C70.7269169 10.59971882 68.15032186 12.18274482 65.03515625 14.3359375 C60.83340253 16.80181593 56.53572458 19.07175805 52.22265625 21.3359375 C49.94505107 22.54377798 47.66770244 23.75210239 45.390625 24.9609375 C44.30765137 25.53513428 43.22467773 26.10933105 42.10888672 26.70092773 C39.35640035 28.16505809 36.60576242 29.63110838 33.8671875 31.12109375 C33.17987549 31.49371338 32.49256348 31.86633301 31.78442383 32.25024414 C28.59603025 34.22913964 27.49701341 35.86402674 26.03515625 39.3359375 C25.68316858 42.75901763 25.52159047 46.17263951 25.3515625 49.609375 C24.29549879 62.04745868 18.81675063 72.12473229 9.78515625 80.6484375 C-1.10111395 89.27718623 -12.47367853 91.28904469 -25.96484375 90.3359375 C-33.93585902 88.70061784 -40.61952553 85.38028138 -46.96484375 80.3359375 C-47.57972656 79.85769531 -48.19460937 79.37945312 -48.828125 78.88671875 C-54.94342075 73.50363136 -61.37224986 62.73104724 -62.1418457 54.42578125 C-62.60200583 38.26334425 -60.30274016 25.843592 -49.15625 13.30078125 C-35.12077543 0.02398098 -18.09438787 0.01426134 0 0 Z M-24.96484375 37.3359375 C-25.95484375 37.8309375 -25.95484375 37.8309375 -26.96484375 38.3359375 C-25.4849121 43.07844576 -23.87892312 47.74950884 -21.96484375 52.3359375 C-21.65546875 53.0784375 -21.34609375 53.8209375 -21.02734375 54.5859375 C-20.01502361 56.67854829 -20.01502361 56.67854829 -16.96484375 57.3359375 C-14.40216407 55.82372747 -14.40216407 55.82372747 -11.83984375 53.6484375 C-10.95039063 52.94332031 -10.0609375 52.23820312 -9.14453125 51.51171875 C-6.96839062 49.33947802 -6.30304414 48.33239298 -5.96484375 45.3359375 C-6.95484375 45.0059375 -7.94484375 44.6759375 -8.96484375 44.3359375 C-9.95484375 44.9959375 -10.94484375 45.6559375 -11.96484375 46.3359375 C-12.95484375 46.9959375 -13.94484375 47.6559375 -14.96484375 48.3359375 C-17.96484375 47.3359375 -17.96484375 47.3359375 -19.02734375 45.3046875 C-19.65234375 43.65885417 -20.27734375 42.01302083 -20.90234375 40.3671875 C-21.84667554 37.98974035 -21.84667554 37.98974035 -24.96484375 37.3359375 Z " fill="#1E2F36" transform="translate(161.96484375,325.6640625)"/>
<path d="M0 0 C0.94875 0.061875 1.8975 0.12375 2.875 0.1875 C5.93602192 1.35789074 7.12310447 3.37234626 9 6 C9.515625 6.44988281 10.03125 6.89976562 10.5625 7.36328125 C13.36569677 10.55496452 13.09568616 14.91739047 13 19 C11.30229234 24.2928533 8.3274841 26.77740545 4 30 C-0.43502557 32.21751279 -6.1844155 31.5270789 -11 31 C-14.0625 28.875 -14.0625 28.875 -16 26 C-16.763125 25.071875 -17.52625 24.14375 -18.3125 23.1875 C-20.41898364 19.20858645 -20.7074195 16.40368637 -20 12 C-16.61341326 2.03945075 -9.93206517 -1.11482364 0 0 Z " fill="#162A33" transform="translate(304,241)"/>
<path d="M0 0 C0.88364603 -0.00155999 1.76729206 -0.00311998 2.67771524 -0.00472724 C5.63244552 -0.0087092 8.58712422 -0.00555846 11.54185486 -0.00241089 C13.66267934 -0.00376616 15.78350359 -0.00554681 17.90432739 -0.00772095 C23.66032846 -0.01227999 29.4163116 -0.01051206 35.17231297 -0.00734186 C41.19445548 -0.00481072 47.21659645 -0.00715788 53.23873901 -0.00872803 C63.35084814 -0.01054737 73.46294996 -0.00814942 83.57505798 -0.00338745 C95.26984017 0.00205618 106.96460493 0.00029082 118.65938669 -0.00521386 C128.69772079 -0.00974991 138.73604964 -0.01039316 148.77438444 -0.00777519 C154.77104092 -0.00621533 160.76768921 -0.00601076 166.76434517 -0.00931168 C172.40071619 -0.01219757 178.03706471 -0.01020142 183.6734333 -0.00441742 C185.74347394 -0.00309375 187.81351647 -0.00347729 189.88355637 -0.00568008 C192.70600662 -0.00840693 195.52838445 -0.00499156 198.35083008 0 C199.17261798 -0.00223072 199.99440589 -0.00446144 200.84109646 -0.00675976 C204.72168503 0.00657886 208.34027841 0.17643114 212.11192322 1.12698364 C212.11192322 1.78698364 212.11192322 2.44698364 212.11192322 3.12698364 C213.10192322 3.45698364 214.09192322 3.78698364 215.11192322 4.12698364 C213.93540569 4.12421826 212.75888817 4.12145288 211.5467186 4.11860371 C183.62997854 4.05365569 155.71324437 4.00417489 127.79644464 3.97378765 C124.36172773 3.97003545 120.92701098 3.96615249 117.49229431 3.96218872 C116.80849277 3.96140179 116.12469123 3.96061486 115.42016843 3.95980408 C104.34245285 3.94674369 93.26478388 3.92308637 82.18709597 3.89552525 C70.82367268 3.86748864 59.46028399 3.8510357 48.09682393 3.84471816 C41.71273933 3.84080026 35.32876053 3.83156432 28.94470978 3.80979347 C22.93986181 3.78948105 16.93516356 3.78313923 10.9302845 3.7876606 C8.72275289 3.78683305 6.51521644 3.78083635 4.30771446 3.76936722 C1.30051274 3.75450533 -1.70611902 3.7580071 -4.71333313 3.76622009 C-6.03239682 3.75311231 -6.03239682 3.75311231 -7.37810826 3.73973972 C-11.85442424 3.77292695 -14.5341893 3.84822782 -17.88807678 7.12698364 C-20.10682678 7.97073364 -20.10682678 7.97073364 -22.38807678 8.62698364 C-27.56468101 10.28214584 -30.23519952 12.30963886 -33.63807678 16.50198364 C-36.83587524 20.36394024 -40.52815126 22.72570487 -44.88807678 25.12698364 C-39.16931305 13.13087926 -30.29324637 6.60483617 -18.00135803 2.07229614 C-11.96457427 0.2392953 -6.25029295 -0.01701244 0 0 Z " fill="#5894EA" transform="translate(149.88807678222656,209.87301635742188)"/>
<path d="M0 0 C1.16427368 2.9106842 0.96182195 4.1277796 0.04296875 7.203125 C-2.78664896 17.5042052 -1.10101846 27.97183084 2 38 C2.309375 39.216875 2.61875 40.43375 2.9375 41.6875 C3.76770569 44.18654232 3.76770569 44.18654232 6.125 44.875 C6.74375 44.91625 7.3625 44.9575 8 45 C8 45.99 8 46.98 8 48 C9.98 48 11.96 48 14 48 C14.12375 48.804375 14.2475 49.60875 14.375 50.4375 C14.58125 51.283125 14.7875 52.12875 15 53 C15.66 53.33 16.32 53.66 17 54 C17 54.66 17 55.32 17 56 C17.61488281 56.18175781 18.22976562 56.36351562 18.86328125 56.55078125 C20.07564453 56.92783203 20.07564453 56.92783203 21.3125 57.3125 C22.11300781 57.55613281 22.91351563 57.79976562 23.73828125 58.05078125 C26 59 26 59 27.35546875 60.48046875 C32.0324513 64.80195619 39.34454668 64.28150977 45.307724 64.24050903 C46.22433715 64.24221788 47.1409503 64.24392673 48.08533961 64.24568737 C51.14543382 64.24897195 54.20530697 64.23799552 57.26538086 64.22705078 C59.46342972 64.22648644 61.66147895 64.22680367 63.85952759 64.22793579 C69.81969987 64.22850943 75.7797916 64.21675325 81.73994517 64.20278788 C87.97128436 64.19028241 94.20262542 64.18911016 100.43397522 64.18673706 C110.89064908 64.18122785 121.34729538 64.16873679 131.80395508 64.15087891 C142.57218275 64.1325081 153.34040239 64.11835748 164.10864258 64.10986328 C164.77290353 64.10933783 165.43716448 64.10881239 166.12155455 64.10827102 C169.45410795 64.10566086 172.7866614 64.10313797 176.11921489 64.10064721 C203.74616382 64.07974408 231.37307983 64.0445671 259 64 C255.23225515 66.5118299 252.18222455 66.3481261 247.81005859 66.40966797 C246.96746113 66.42874332 246.12486366 66.44781868 245.25673294 66.46747208 C242.42906949 66.52787403 239.60139888 66.57305912 236.7734375 66.6171875 C234.75409536 66.65487803 232.73475746 66.69279618 230.71542358 66.73092651 C205.68750871 67.17370587 180.65592834 67.15497916 155.625 67.125 C153.13423669 67.12272164 150.64347334 67.12048403 148.15270996 67.11828613 C132.48621073 67.10279427 116.81983451 67.0667916 101.15342712 67.01115417 C98.17426701 67.00061641 95.19510519 66.99081961 92.21594238 66.9810791 C82.86529312 66.94865846 73.51536705 66.89421841 64.16522217 66.79046631 C61.59240349 66.76387459 59.01951315 66.74338501 56.44659424 66.72955322 C38.15816811 66.61895195 23.34420592 65.7423203 9.3125 52.75 C0.04478235 42.98771737 -4.34225632 30.55103582 -4.16015625 17.1796875 C-3.72642712 11.27673988 -2.50977471 5.37808866 0 0 Z " fill="#A6DCF2" transform="translate(103,123)"/>
<path d="M0 0 C0.88364603 -0.00155999 1.76729206 -0.00311998 2.67771524 -0.00472724 C5.63244552 -0.0087092 8.58712422 -0.00555846 11.54185486 -0.00241089 C13.66267934 -0.00376616 15.78350359 -0.00554681 17.90432739 -0.00772095 C23.66032846 -0.01227999 29.4163116 -0.01051206 35.17231297 -0.00734186 C41.19445548 -0.00481072 47.21659645 -0.00715788 53.23873901 -0.00872803 C63.35084814 -0.01054737 73.46294996 -0.00814942 83.57505798 -0.00338745 C95.26984017 0.00205618 106.96460493 0.00029082 118.65938669 -0.00521386 C128.69772079 -0.00974991 138.73604964 -0.01039316 148.77438444 -0.00777519 C154.77104092 -0.00621533 160.76768921 -0.00601076 166.76434517 -0.00931168 C172.40071619 -0.01219757 178.03706471 -0.01020142 183.6734333 -0.00441742 C185.74347394 -0.00309375 187.81351647 -0.00347729 189.88355637 -0.00568008 C192.70600662 -0.00840693 195.52838445 -0.00499156 198.35083008 0 C199.17261798 -0.00223072 199.99440589 -0.00446144 200.84109646 -0.00675976 C204.72168503 0.00657886 208.34027841 0.17643114 212.11192322 1.12698364 C212.11192322 1.45698364 212.11192322 1.78698364 212.11192322 2.12698364 C210.98363287 2.12514006 209.85534252 2.12329647 208.69286156 2.12139702 C181.25174293 2.07701761 153.81062896 2.04414147 126.36948204 2.0233593 C113.09920858 2.01304234 99.82895881 1.99897395 86.55870056 1.97610474 C74.99370166 1.95618376 63.42871991 1.94327026 51.86370432 1.93880665 C45.73891681 1.93619709 39.61417838 1.93005469 33.48940659 1.91552353 C27.72588171 1.90196008 21.96242619 1.89775852 16.19888687 1.90076828 C14.08250298 1.90021757 11.9661168 1.8962328 9.8497467 1.88857269 C6.96157939 1.8786309 4.07367441 1.88101206 1.1855011 1.88647461 C0.34696952 1.88064893 -0.49156205 1.87482324 -1.35550368 1.86882102 C-6.58863017 1.89559604 -11.43250262 2.17945931 -15.70057678 5.56448364 C-17.96184464 7.17967497 -19.75157839 7.80549719 -22.38807678 8.62698364 C-27.56468101 10.28214584 -30.23519952 12.30963886 -33.63807678 16.50198364 C-36.83587524 20.36394024 -40.52815126 22.72570487 -44.88807678 25.12698364 C-39.16931305 13.13087926 -30.29324637 6.60483617 -18.00135803 2.07229614 C-11.96457427 0.2392953 -6.25029295 -0.01701244 0 0 Z " fill="#A4CBFD" transform="translate(149.88807678222656,209.87301635742188)"/>
<path d="M0 0 C7.68421053 -0.29554656 7.68421053 -0.29554656 11 2 C11.33 2.66 11.66 3.32 12 4 C12.58807025 4.00331015 13.1761405 4.00662029 13.78203106 4.01003075 C28.09588805 4.09127684 42.40964486 4.18337459 56.72335339 4.28752708 C63.64538047 4.33763336 70.56739582 4.38407647 77.48950195 4.421875 C84.16797929 4.45835349 90.84631295 4.50506789 97.524683 4.55806351 C100.07437204 4.57661584 102.62408854 4.59172067 105.17381859 4.60334396 C108.74125701 4.62019172 112.30840157 4.64922401 115.87573242 4.68115234 C116.93309097 4.68331253 117.99044952 4.68547272 119.07984924 4.68769836 C120.05435028 4.69886185 121.02885132 4.71002533 122.03288269 4.7215271 C122.87632327 4.72705786 123.71976385 4.73258862 124.58876324 4.73828697 C127.33232083 5.03606974 129.4919648 5.8744819 132 7 C132 7.99 132 8.98 132 10 C131.43480243 9.67560472 130.86960485 9.35120943 130.28728008 9.01698399 C127.77999347 7.9021794 126.13285752 7.7427704 123.40351868 7.72825623 C122.48546951 7.7185379 121.56742035 7.70881958 120.62155151 7.69880676 C119.62149078 7.69821762 118.62143005 7.69762848 117.59106445 7.69702148 C116.53204422 7.68858215 115.47302399 7.68014282 114.38191223 7.67144775 C110.87569739 7.64562854 107.36956694 7.6335158 103.86328125 7.62109375 C101.4243249 7.60491733 98.98537502 7.58773718 96.5464325 7.56959534 C90.11702477 7.52385916 83.68760829 7.48909094 77.25811768 7.45739746 C66.98472819 7.40558951 56.71143495 7.34013019 46.43816185 7.26918221 C42.85488589 7.24643718 39.27162182 7.23010434 35.68830872 7.21446228 C33.47750727 7.20104488 31.26670701 7.18742917 29.0559082 7.17358398 C27.57099884 7.16966393 27.57099884 7.16966393 26.05609131 7.16566467 C9.34758739 7.04201097 9.34758739 7.04201097 4 2 C2.68861096 1.29114106 1.36222983 0.60543548 0 0 Z " fill="#4C8BE1" transform="translate(124,296)"/>
<path d="M0 0 C0.89059156 -0.00170885 1.78118312 -0.0034177 2.6987623 -0.00517833 C5.65280554 -0.00844601 8.60661647 0.0024852 11.56063843 0.01345825 C13.69016515 0.01402296 15.81969226 0.01370465 17.94921875 0.01257324 C23.70880788 0.01200104 29.46831316 0.02373395 35.22788286 0.03772116 C41.25500593 0.05025057 47.28213106 0.05140076 53.30926514 0.05377197 C64.71289205 0.05998024 76.11648047 0.07638224 87.52009046 0.09647095 C100.50676881 0.11885027 113.49344903 0.1298285 126.48014188 0.13986182 C153.18586907 0.16074903 179.89156214 0.19591232 206.59725952 0.24050903 C206.59725952 0.57050903 206.59725952 0.90050903 206.59725952 1.24050903 C205.50596709 1.24381918 204.41467466 1.24712933 203.29031277 1.25053978 C176.74172582 1.33151932 150.19319673 1.42383042 123.64469051 1.52803612 C110.80605703 1.57816653 97.96742994 1.62460947 85.12875366 1.66238403 C73.93910048 1.6953161 62.74949689 1.73515415 51.55989844 1.78329909 C45.63463496 1.80855189 39.70940433 1.83033687 33.78410149 1.843853 C28.20684963 1.85668428 22.6297105 1.87875046 17.05252075 1.90789223 C15.0059131 1.91695961 12.9592873 1.92265628 10.9126606 1.92472267 C8.11676085 1.92805109 5.32117955 1.94354445 2.52534485 1.96203613 C1.3127717 1.95913403 1.3127717 1.95913403 0.07570213 1.9561733 C-4.79584914 2.00428615 -8.76532446 2.7495031 -13.40274048 4.24050903 C-16.11836804 4.45845667 -18.67034293 4.33638263 -21.40274048 4.24050903 C-16.39307722 -0.76915422 -6.71326197 -0.04820479 0 0 Z " fill="#BAE8FB" transform="translate(150.40274047851563,94.75949096679688)"/>
<path d="M0 0 C1.1570132 3.68725168 0.51382122 5.95821698 -0.50634766 9.66308594 C-1.44519318 14.10751192 -1.2454849 18.60217782 -1.1875 23.125 C-1.18685547 24.08792969 -1.18621094 25.05085938 -1.18554688 26.04296875 C-1.15609452 30.80116103 -0.98423369 35.32292148 0 40 C0.66 40 1.32 40 2 40 C4 42 4 42 5 44 C5.66 44 6.32 44 7 44 C6.87625 44.845625 6.7525 45.69125 6.625 46.5625 C7.14647201 51.34266009 9.37285867 53.93613238 13 57 C15.64184541 57.79681318 15.64184541 57.79681318 18 58 C18.66 58.99 19.32 59.98 20 61 C21.95385067 61.78988145 21.95385067 61.78988145 24.125 62.1875 C25.40375 62.455625 26.6825 62.72375 28 63 C28.33 64.32 28.66 65.64 29 67 C16.84916427 64.33645563 8.32507938 57.05118103 1.52734375 46.7734375 C-3.19308152 38.76385293 -4.34737229 31.2199632 -4.3125 22.0625 C-4.32861328 21.22009766 -4.34472656 20.37769531 -4.36132812 19.50976562 C-4.36597018 13.47973212 -3.17943106 8.59719151 -1 3 C-0.67 2.01 -0.34 1.02 0 0 Z " fill="#93C1F1" transform="translate(104,235)"/>
<path d="M0 0 C1.16427368 2.9106842 0.96182195 4.1277796 0.04296875 7.203125 C-2.78664896 17.5042052 -1.10101846 27.97183084 2 38 C2.309375 39.216875 2.61875 40.43375 2.9375 41.6875 C3.76770569 44.18654232 3.76770569 44.18654232 6.125 44.875 C6.74375 44.91625 7.3625 44.9575 8 45 C8 45.99 8 46.98 8 48 C9.98 48 11.96 48 14 48 C14.12375 48.804375 14.2475 49.60875 14.375 50.4375 C14.58125 51.283125 14.7875 52.12875 15 53 C15.66 53.33 16.32 53.66 17 54 C17 54.66 17 55.32 17 56 C17.63808594 56.18175781 18.27617188 56.36351562 18.93359375 56.55078125 C19.75988281 56.80214844 20.58617188 57.05351562 21.4375 57.3125 C22.26121094 57.55613281 23.08492187 57.79976562 23.93359375 58.05078125 C24.61550781 58.36402344 25.29742187 58.67726562 26 59 C26.33 59.99 26.66 60.98 27 62 C18.95935224 61.82892239 14.31868231 57.27763854 8.7890625 51.81640625 C0.04217603 42.4354518 -3.91764242 31.7013285 -4.3125 18.75 C-3.77392545 12.28710544 -2.76228584 5.91918394 0 0 Z " fill="#72C9D5" transform="translate(103,123)"/>
<path d="M0 0 C-8.89058257 7.78134137 -19.92885489 8.59730023 -31.30078125 8.390625 C-33.10436348 8.38213531 -33.10436348 8.38213531 -34.94438171 8.37347412 C-38.73418288 8.3513239 -42.52299112 8.30116718 -46.3125 8.25 C-48.90298101 8.22990745 -51.49347704 8.21166155 -54.08398438 8.1953125 C-60.389654 8.15152939 -66.69475603 8.08483491 -73 8 C-72.67 7.34 -72.34 6.68 -72 6 C-53.52 5.67 -35.04 5.34 -16 5 C-16 4.34 -16 3.68 -16 3 C-12.7 2.67 -9.4 2.34 -6 2 C-6 1.34 -6 0.68 -6 0 C-3 -1 -3 -1 0 0 Z " fill="#4480E4" transform="translate(375,295)"/>
<path d="M0 0 C2.65409887 1.97217698 4.3447935 4.15420636 6 7 C5.67 7.66 5.34 8.32 5 9 C4.401875 8.360625 3.80375 7.72125 3.1875 7.0625 C-0.46483199 3.61887269 -4.01331594 3.71172311 -8.78515625 3.7890625 C-13.29403531 4.21847955 -15.37131542 6.30334952 -18.3125 9.5625 C-20.50962889 14.03813291 -20.89991132 18.0869706 -20 23 C-18.56809708 25.26878394 -18.56809708 25.26878394 -17 27 C-17.33 27.66 -17.66 28.32 -18 29 C-21.80413153 26.5457216 -21.80413153 26.5457216 -22.62109375 24.26953125 C-23.0894955 21.46394966 -23.13204872 18.78165814 -23.125 15.9375 C-23.12757813 14.89464844 -23.13015625 13.85179687 -23.1328125 12.77734375 C-23 10 -23 10 -22 7 C-22.66 7 -23.32 7 -24 7 C-24 6.01 -24 5.02 -24 4 C-23.34 4 -22.68 4 -22 4 C-22 3.34 -22 2.68 -22 2 C-21.278125 2.226875 -20.55625 2.45375 -19.8125 2.6875 C-16.9495877 3.30011897 -16.9495877 3.30011897 -14.6953125 1.55859375 C-10.05627326 -1.12398112 -5.1832391 -1.02125899 0 0 Z " fill="#7BABEE" transform="translate(256,239)"/>
<path d="M0 0 C1.65125885 0.0001133 1.65125885 0.0001133 3.33587646 0.00022888 C4.51828918 0.00539017 5.7007019 0.01055145 6.91894531 0.01586914 C8.13406799 0.01728409 9.34919067 0.01869904 10.60113525 0.02015686 C14.48313862 0.02575551 18.36508437 0.0383078 22.24707031 0.05102539 C24.8785799 0.05604056 27.51009038 0.06060344 30.14160156 0.06469727 C36.59344415 0.0757245 43.04525311 0.09246131 49.49707031 0.11352539 C49.49707031 0.44352539 49.49707031 0.77352539 49.49707031 1.11352539 C48.85084717 1.11939163 48.20462402 1.12525787 47.53881836 1.13130188 C40.7897559 1.19542449 34.04116197 1.27989275 27.29248047 1.37597656 C24.77659294 1.40915275 22.26063228 1.43720723 19.74462891 1.45996094 C16.12012688 1.49364057 12.49629052 1.5459653 8.87207031 1.60180664 C7.19504028 1.61139153 7.19504028 1.61139153 5.48413086 1.62117004 C-2.90534964 1.77775976 -8.90262789 3.52981391 -16.29980469 7.55883789 C-17.11320312 7.99583008 -17.92660156 8.43282227 -18.76464844 8.88305664 C-19.58578125 9.33036133 -20.40691406 9.77766602 -21.25292969 10.23852539 C-22.91218831 11.14101891 -24.57357381 12.03961571 -26.23730469 12.93383789 C-26.96143555 13.32845215 -27.68556641 13.72306641 -28.43164062 14.12963867 C-30.45060566 15.08867086 -32.32102125 15.65563193 -34.50292969 16.11352539 C-30.99421089 13.01759704 -28.0109557 11.37157916 -23.50292969 10.11352539 C-23.50292969 8.79352539 -23.50292969 7.47352539 -23.50292969 6.11352539 C-21.85292969 6.11352539 -20.20292969 6.11352539 -18.50292969 6.11352539 C-18.50292969 5.45352539 -18.50292969 4.79352539 -18.50292969 4.11352539 C-17.08691255 3.63244265 -15.67008532 3.15374398 -14.25292969 2.67602539 C-13.46402344 2.40918945 -12.67511719 2.14235352 -11.86230469 1.86743164 C-7.77114449 0.56015694 -4.31982378 -0.00990785 0 0 Z " fill="#9FC7FE" transform="translate(307.5029296875,302.886474609375)"/>
<path d="M0 0 C0.33 0.66 0.66 1.32 1 2 C0.10796875 2.32613281 -0.7840625 2.65226563 -1.703125 2.98828125 C-2.87359375 3.42527344 -4.0440625 3.86226562 -5.25 4.3125 C-6.41015625 4.74175781 -7.5703125 5.17101562 -8.765625 5.61328125 C-13.16305659 7.49865349 -15.85939984 9.61721979 -18.75 13.375 C-21.94779845 17.23695659 -25.64007448 19.59872122 -30 22 C-25.59644255 12.76277019 -18.62586419 5.47192464 -9.3125 1.0625 C-5.99089344 -0.00292097 -3.46216841 -0.2533294 0 0 Z " fill="#86B7F1" transform="translate(135,213)"/>
<path d="M0 0 C1.7569055 0.00373656 3.5138131 0.00658049 5.27072144 0.00857544 C9.86395155 0.01616128 14.4570524 0.0357656 19.05023193 0.0579834 C23.74961601 0.07855141 28.44902125 0.08760044 33.1484375 0.09765625 C42.34641053 0.11901691 51.54428821 0.15309088 60.7421875 0.1953125 C60.7421875 0.5253125 60.7421875 0.8553125 60.7421875 1.1953125 C59.80559799 1.20339935 58.86900848 1.21148621 57.90403748 1.21981812 C49.06169674 1.29742657 40.21950708 1.38520262 31.37736416 1.48283958 C26.8319292 1.53270706 22.2865164 1.57903774 17.7409668 1.6171875 C13.35124711 1.65416119 8.96171729 1.70055349 4.57216072 1.75337601 C2.90053717 1.7718559 1.22887301 1.78698731 -0.44281197 1.79865646 C-2.79092829 1.8156291 -5.13861583 1.84468943 -7.48657227 1.87646484 C-8.51480606 1.87970512 -8.51480606 1.87970512 -9.56381226 1.88301086 C-14.09004041 1.96085495 -17.95205984 2.84598453 -22.2578125 4.1953125 C-24.97344006 4.41326014 -27.52541495 4.2911861 -30.2578125 4.1953125 C-23.55071588 -2.51178412 -8.8775005 -0.05577765 0 0 Z " fill="#BAECF6" transform="translate(159.2578125,94.8046875)"/>
<path d="M0 0 C0.66 0 1.32 0 2 0 C1.835 0.66 1.67 1.32 1.5 2 C0.20210786 8.8722463 0.20210786 8.8722463 2.33984375 15.22265625 C3.41952789 16.62243498 4.53439882 17.99599123 5.6875 19.3359375 C7 21 7 21 7 23 C9.39614126 23.05425226 11.79103853 23.09379027 14.1875 23.125 C14.86103516 23.14175781 15.53457031 23.15851563 16.22851562 23.17578125 C20.28807807 23.21538674 23.34998815 22.80020002 27 21 C25.71723419 24.84829743 24.20944518 25.42353387 20.78125 27.28515625 C18.50456085 28.19882755 17.24236127 27.91355459 15 27 C14.34 27.33 13.68 27.66 13 28 C13 27.01 13 26.02 13 25 C11.7625 24.938125 10.525 24.87625 9.25 24.8125 C5.87493803 24.39508951 5.17923033 24.17451374 2.625 21.6875 C2.08875 20.800625 1.5525 19.91375 1 19 C0.64035156 18.42121094 0.28070313 17.84242188 -0.08984375 17.24609375 C-1.31903063 14.21269264 -1.22799701 11.63684978 -1.1875 8.375 C-1.18105469 7.22773438 -1.17460937 6.08046875 -1.16796875 4.8984375 C-1 2 -1 2 0 0 Z " fill="#3F77CA" transform="translate(284,248)"/>
<path d="M0 0 C0.33 0.66 0.66 1.32 1 2 C0.67 2.66 0.34 3.32 0 4 C0.66 4.33 1.32 4.66 2 5 C0.7934375 5.7734375 0.7934375 5.7734375 -0.4375 6.5625 C-3.72631843 9.69088826 -3.61711029 11.55847937 -4 16 C-4.33386719 16.88171875 -4.66773437 17.7634375 -5.01171875 18.671875 C-6.25070466 22.84427023 -6.22018559 26.55503868 -6.125 30.875 C-6.11146484 32.050625 -6.11146484 32.050625 -6.09765625 33.25 C-6.07428063 35.16680055 -6.03841653 37.08344191 -6 39 C-6.99 39.495 -6.99 39.495 -8 40 C-11.19751574 30.40745278 -9.18574177 17.32383764 -6 8 C-4.27811884 5.02504502 -2.37786507 2.4779047 0 0 Z " fill="#4EB9CD" transform="translate(110,112)"/>
<path d="M0 0 C0.66 0 1.32 0 2 0 C4.2241475 5.28235032 5.05540801 10.35962276 4 16 C2.38553242 19.76304474 0.57596539 21.97545344 -3 24 C-9.32632586 24.97120568 -16.36729088 25.50796568 -22 22 C-21.67 21.34 -21.34 20.68 -21 20 C-20.43152344 20.32355469 -19.86304688 20.64710938 -19.27734375 20.98046875 C-15.57538429 22.63777822 -11.98204943 22.47015253 -8 22 C-4.76699914 20.52406483 -2.27839213 18.73407055 0 16 C0.93249614 13.20251159 1.13476152 11.45679119 1.125 8.5625 C1.12757813 7.80066406 1.13015625 7.03882813 1.1328125 6.25390625 C1.00276015 4.04684141 0.60856199 2.12030724 0 0 Z " fill="#8DBEF1" transform="translate(262,248)"/>
<path d="M0 0 C1.5 1.3125 1.5 1.3125 3 3 C3 3.99 3 4.98 3 6 C3.66 6 4.32 6 5 6 C9.11764706 23.27941176 9.11764706 23.27941176 5 31 C4.34 31 3.68 31 3 31 C3.01160156 30.08476562 3.02320313 29.16953125 3.03515625 28.2265625 C3.04417969 27.03804688 3.05320312 25.84953125 3.0625 24.625 C3.07410156 23.44164062 3.08570313 22.25828125 3.09765625 21.0390625 C3.21466593 18.08078479 3.21466593 18.08078479 2 16 C2.020625 14.989375 2.04125 13.97875 2.0625 12.9375 C1.9904807 8.40028439 1.11182663 4.37781735 0 0 Z " fill="#5F96EA" transform="translate(390,237)"/>
<path d="M0 0 C1.72089844 -0.02126953 1.72089844 -0.02126953 3.4765625 -0.04296875 C6.375 0.1875 6.375 0.1875 8.375 2.1875 C7.71113281 2.16429687 7.04726562 2.14109375 6.36328125 2.1171875 C-0.34908343 1.97869509 -0.34908343 1.97869509 -6.625 4.1875 C-7.615 4.5175 -8.605 4.8475 -9.625 5.1875 C-10.79453416 7.61133077 -10.79453416 7.61133077 -11.625 10.1875 C-11.955 10.8475 -12.285 11.5075 -12.625 12.1875 C-12.85833287 18.27266056 -12.85833287 18.27266056 -11.625 24.1875 C-13.57421875 23.53125 -13.57421875 23.53125 -15.625 22.1875 C-16.26953125 19.65625 -16.26953125 19.65625 -16.4375 16.6875 C-16.50582031 15.7078125 -16.57414063 14.728125 -16.64453125 13.71875 C-16.625 11.1875 -16.625 11.1875 -15.625 9.1875 C-14.635 9.1875 -13.645 9.1875 -12.625 9.1875 C-11.965 6.5475 -11.305 3.9075 -10.625 1.1875 C-6.86212817 0.24678204 -3.85470673 0.02175342 0 0 Z " fill="#92C3F5" transform="translate(196.625,240.8125)"/>
<path d="M0 0 C0 3.74016583 -0.9341591 4.45276193 -3.375 7.1875 C-4.00148438 7.90292969 -4.62796875 8.61835938 -5.2734375 9.35546875 C-7 11 -7 11 -9 11 C-9 11.66 -9 12.32 -9 13 C-15.25817553 18.04315741 -22.89382599 21.60796305 -31 21 C-28.14034355 19.09356237 -26.3858199 18.4952715 -23.125 17.6875 C-18.49039084 16.35085185 -16.18068367 14.71079761 -13 11 C-7.5640327 6 -7.5640327 6 -5 6 C-4.67 4.68 -4.34 3.36 -4 2 C-3.34 2 -2.68 2 -2 2 C-1.34 1.34 -0.68 0.68 0 0 Z " fill="#89B7F0" transform="translate(388,282)"/>
<path d="M0 0 C0.66 0.33 1.32 0.66 2 1 C2.59393579 13.3626635 2.59393579 13.3626635 -1 18 C-7.00347971 21.91531285 -14.01939735 22.00234294 -21 21 C-23.70084464 19.60100134 -24.96723279 18.32316253 -27 16 C-26.67 15.34 -26.34 14.68 -26 14 C-25.401875 14.639375 -24.80375 15.27875 -24.1875 15.9375 C-20.39109921 19.5169636 -16.48111244 19.33259004 -11.51171875 19.2890625 C-7.8581754 18.8685925 -5.73141696 17.38998984 -3 15 C-0.73045369 11.59568053 -0.63450051 9.83475798 -0.375 5.8125 C-0.30023438 4.72582031 -0.22546875 3.63914063 -0.1484375 2.51953125 C-0.09945312 1.68808594 -0.05046875 0.85664063 0 0 Z " fill="#A3C9F6" transform="translate(212,251)"/>
<path d="M0 0 C-0.78375 0.804375 -1.5675 1.60875 -2.375 2.4375 C-5.92501101 6.71364963 -7.17415865 11.60390637 -6.890625 17.1328125 C-6.66571198 18.76673941 -6.34323904 20.38677653 -6 22 C-6.99 21.67 -7.98 21.34 -9 21 C-9 20.34 -9 19.68 -9 19 C-9.66 19 -10.32 19 -11 19 C-11.33250886 12.9040042 -10.78825238 7.53060761 -8 2 C-4.77208445 -0.1519437 -3.71599191 -0.20086443 0 0 Z " fill="#65C7D6" transform="translate(198,128)"/>
<path d="M0 0 C5.03072149 5.03072149 5.2258787 14.2998489 5.375 21.0625 C5.18908194 29.06582995 3.96705775 37.45251478 -1 44 C-1.33 44 -1.66 44 -2 44 C-2 42.02 -2 40.04 -2 38 C-1.01 38 -0.02 38 1 38 C1.88312271 32.67300382 2.19205318 27.52166246 2.1875 22.125 C2.18814453 21.3314209 2.18878906 20.5378418 2.18945312 19.72021484 C2.13958078 14.20365389 1.47141546 9.33388104 0 4 C0 2.68 0 1.36 0 0 Z " fill="#86C7EE" transform="translate(392,122)"/>
<path d="M0 0 C1.16427368 2.9106842 0.96182195 4.1277796 0.04296875 7.203125 C-2.83416789 17.67719545 -1.80783174 30.46366634 3.125 40.2265625 C4.0719362 41.82451734 5.03422072 43.41336261 6 45 C5.67 45.66 5.34 46.32 5 47 C-2.16031227 36.61330196 -5.501687 25.12477628 -3.62109375 12.4453125 C-2.80328079 8.1051083 -1.87839283 4.0251275 0 0 Z " fill="#A5E2EB" transform="translate(103,123)"/>
<path d="M0 0 C1.32 0.33 2.64 0.66 4 1 C3.125 5.875 3.125 5.875 2 7 C1.84748207 9.26723769 1.7780806 11.54031164 1.75 13.8125 C1.72421875 15.05644531 1.6984375 16.30039062 1.671875 17.58203125 C2.01313236 21.13679543 2.57334857 22.46478785 5 25 C4.67 25.66 4.34 26.32 4 27 C0.19586847 24.5457216 0.19586847 24.5457216 -0.62109375 22.26953125 C-1.0894955 19.46394966 -1.13204872 16.78165814 -1.125 13.9375 C-1.12757813 12.89464844 -1.13015625 11.85179687 -1.1328125 10.77734375 C-1 8 -1 8 0 5 C-0.66 5 -1.32 5 -2 5 C-2 4.01 -2 3.02 -2 2 C-1.34 2 -0.68 2 0 2 C0 1.34 0 0.68 0 0 Z " fill="#5294EE" transform="translate(234,241)"/>
<path d="M0 0 C10.00997225 0.76999787 18.51185221 7.76686655 25 15 C25 15.99 25 16.98 25 18 C23.824375 17.0409375 23.824375 17.0409375 22.625 16.0625 C20.20460719 14.01857687 20.20460719 14.01857687 18 13 C18 12.34 18 11.68 18 11 C17.34 11 16.68 11 16 11 C16 10.34 16 9.68 16 9 C15.154375 8.731875 14.30875 8.46375 13.4375 8.1875 C9.86145933 6.9521405 6.46139092 5.523012 3 4 C3 3.34 3 2.68 3 2 C2.01 1.34 1.02 0.68 0 0 Z " fill="#689FE7" transform="translate(362,212)"/>
<path d="M0 0 C0.66 0.33 1.32 0.66 2 1 C-1.66062182 5.2590886 -6.21547598 7.63681955 -11.0625 10.3125 C-11.87783203 10.77978516 -12.69316406 11.24707031 -13.53320312 11.72851562 C-14.31759766 12.16486328 -15.10199219 12.60121094 -15.91015625 13.05078125 C-16.97955444 13.64886597 -16.97955444 13.64886597 -18.07055664 14.2590332 C-20 15 -20 15 -23 14 C-21.54462432 13.16151196 -20.08559627 12.32936066 -18.625 11.5 C-17.81289063 11.0359375 -17.00078125 10.571875 -16.1640625 10.09375 C-14 9 -14 9 -12 9 C-12 7.68 -12 6.36 -12 5 C-10.35 5 -8.7 5 -7 5 C-7 4.34 -7 3.68 -7 3 C-4.69631264 1.93347808 -2.35981813 0.93578995 0 0 Z " fill="#81AFEF" transform="translate(296,304)"/>
<path d="M0 0 C4.63636364 1.46411483 4.63636364 1.46411483 6.11328125 3.640625 C7.28907424 6.76916671 7.54801261 9.67098533 7.8125 13 C7.92207031 14.216875 8.03164063 15.43375 8.14453125 16.6875 C7.98803019 20.27433521 7.59135746 21.56532927 5 24 C2.3125 24.25 2.3125 24.25 0 24 C1.00911458 22.2421875 2.01822917 20.484375 3.02734375 18.7265625 C5.0296407 15.17228437 5.07455637 13.11379053 4.8125 9 C4.75707031 7.9275 4.70164062 6.855 4.64453125 5.75 C4.29709823 2.8615022 4.29709823 2.8615022 1.94921875 1.625 C0.98435547 1.315625 0.98435547 1.315625 0 1 C0 0.67 0 0.34 0 0 Z " fill="#3F76CA" transform="translate(311,245)"/>
<path d="M0 0 C0.99 0.495 0.99 0.495 2 1 C2.625 4.0625 2.625 4.0625 3 7 C3.66 7 4.32 7 5 7 C7 9 7 9 8 11 C8.66 11 9.32 11 10 11 C9.67 12.98 9.34 14.96 9 17 C4.79103527 15.59701176 4.09299989 13.2225974 2.07421875 9.43359375 C0.65119628 6.20980103 0.22353501 3.50204842 0 0 Z " fill="#83B5F3" transform="translate(101,268)"/>
<path d="M0 0 C0.99 0.495 0.99 0.495 2 1 C2.40729228 3.32156597 2.74438677 5.6568787 3 8 C4.65 8 6.3 8 8 8 C8.33 8.99 8.66 9.98 9 11 C8.34 11 7.68 11 7 11 C7.33 12.32 7.66 13.64 8 15 C6.68 15 5.36 15 4 15 C-0.59225513 5.77448747 -0.59225513 5.77448747 0 0 Z " fill="#49BCD0" transform="translate(103,152)"/>
<path d="M0 0 C-3.7459864 4.3135601 -6.53717118 5.58371105 -12 7 C-13.90170054 8.47761659 -13.90170054 8.47761659 -15 10 C-15.66 9.67 -16.32 9.34 -17 9 C-12.29573852 2.77377158 -8.22905775 -0.58778984 0 0 Z " fill="#49BBCB" transform="translate(133,99)"/>
<path d="M0 0 C0.33 0.66 0.66 1.32 1 2 C-1.08219049 2.81542431 -3.16579761 3.62723189 -5.25 4.4375 C-6.41015625 4.88996094 -7.5703125 5.34242188 -8.765625 5.80859375 C-11.18966308 6.70150633 -13.48286475 7.45794365 -16 8 C-11.26414083 1.77572795 -8.09991351 -0.37674016 0 0 Z " fill="#62A0E7" transform="translate(135,213)"/>
<path d="M0 0 C0.66 0 1.32 0 2 0 C3.41634833 2.83269666 3.3463005 5.47466438 3.5625 8.625 C3.64628906 9.81351562 3.73007812 11.00203125 3.81640625 12.2265625 C3.87699219 13.14179688 3.93757813 14.05703125 4 15 C5.65 15.33 7.3 15.66 9 16 C9 15.01 9 14.02 9 13 C10.32 13 11.64 13 13 13 C13.33 12.34 13.66 11.68 14 11 C14 11.66 14 12.32 14 13 C14.66 13.33 15.32 13.66 16 14 C11.52118671 17.35910997 8.40227629 17.36015175 3 17 C1.15119504 15.15119504 1.65386718 12.11435121 1.5 9.625 C1.28419953 6.14907092 1.1024508 3.3073524 0 0 Z " fill="#558EDD" transform="translate(257,306)"/>
<path d="M0 0 C0 0.33 0 0.66 0 1 C-1.14597656 1.04898438 -2.29195312 1.09796875 -3.47265625 1.1484375 C-5.00262535 1.22352801 -6.53257218 1.29907306 -8.0625 1.375 C-9.19075195 1.42140625 -9.19075195 1.42140625 -10.34179688 1.46875 C-15.17385353 1.71976593 -19.34248317 2.59822309 -24 4 C-26.71562756 4.21794764 -29.26760245 4.0958736 -32 4 C-25.01762357 -2.98237643 -9.13639964 -0.17288675 0 0 Z " fill="#9DDDE9" transform="translate(161,95)"/>
<path d="M0 0 C0.65355469 0.49113281 1.30710938 0.98226563 1.98046875 1.48828125 C5.81210125 3.40657592 9.13738444 3.33301341 13.3125 3.1875 C14.05306641 3.17396484 14.79363281 3.16042969 15.55664062 3.14648438 C17.37141075 3.11135979 19.18580288 3.05755972 21 3 C16.4765625 6.96875 16.4765625 6.96875 12.1875 7.25 C10.6096875 7.12625 10.6096875 7.12625 9 7 C9 6.34 9 5.68 9 5 C7.88625 4.9175 6.7725 4.835 5.625 4.75 C2 4 2 4 0.5625 1.9375 C0.376875 1.298125 0.19125 0.65875 0 0 Z " fill="#4F90E8" transform="translate(186,268)"/>
<path d="M0 0 C3.125 0.5 3.125 0.5 5 1 C5 1.66 5 2.32 5 3 C3.72125 2.979375 2.4425 2.95875 1.125 2.9375 C-3.96207017 2.92941245 -8.9516147 3.40979211 -14 4 C-10.36711141 -1.28420158 -5.79857728 -0.49648562 0 0 Z " fill="#113758" transform="translate(304,241)"/>
<path d="M0 0 C1 3 1 3 -0.125 5.5 C-2.85076401 9.13435201 -5.74523511 10.58174504 -10 12 C-10 11.34 -10 10.68 -10 10 C-9.34 10 -8.68 10 -8 10 C-7.979375 9.278125 -7.95875 8.55625 -7.9375 7.8125 C-6.55987495 3.67962484 -3.60643381 2.21282492 0 0 Z " fill="#49A1E2" transform="translate(386,167)"/>
<path d="M0 0 C0.66 0 1.32 0 2 0 C2.2475 0.639375 2.495 1.27875 2.75 1.9375 C3.81562433 4.18741541 3.81562433 4.18741541 6.125 4.75 C6.74375 4.8325 7.3625 4.915 8 5 C7.67 5.66 7.34 6.32 7 7 C8.65 6.67 10.3 6.34 12 6 C12.33 6.66 12.66 7.32 13 8 C12.67 8.66 12.34 9.32 12 10 C9.73828125 10.2421875 9.73828125 10.2421875 7 10 C4.98046875 8.3203125 4.98046875 8.3203125 3.1875 6.125 C2.28064453 5.04605469 2.28064453 5.04605469 1.35546875 3.9453125 C0 2 0 2 0 0 Z " fill="#4F94EB" transform="translate(110,283)"/>
<path d="M0 0 C1.32 0.33 2.64 0.66 4 1 C4.75 3.25 4.75 3.25 5 6 C2.56970106 9.17808322 -0.43546499 11.2177325 -4 13 C-4.66 12.67 -5.32 12.34 -6 12 C-5.0479279 10.99403703 -4.08812654 9.99538437 -3.125 9 C-2.32449219 8.1646875 -2.32449219 8.1646875 -1.5078125 7.3125 C0 6 0 6 2 6 C2 4.68 2 3.36 2 2 C1.34 1.34 0.68 0.68 0 0 Z " fill="#647276" transform="translate(153,369)"/>
<path d="M0 0 C0.268125 0.5775 0.53625 1.155 0.8125 1.75 C1.90631635 4.04309356 1.90631635 4.04309356 3.625 5.8125 C5.59543061 8.94727596 5.33534201 11.37830627 5 15 C4.34 15.66 3.68 16.32 3 17 C2.97421875 16.39671875 2.9484375 15.7934375 2.921875 15.171875 C2.62611413 9.93018499 2.62611413 9.93018499 -0.0625 5.5625 C-0.701875 5.046875 -1.34125 4.53125 -2 4 C-2 3.34 -2 2.68 -2 2 C-1.34 2 -0.68 2 0 2 C0 1.34 0 0.68 0 0 Z " fill="#669DEB" transform="translate(211,244)"/>
<path d="M0 0 C0.99 0.33 1.98 0.66 3 1 C3 1.99 3 2.98 3 4 C4.98 4 6.96 4 9 4 C9.66 6.31 10.32 8.62 11 11 C6.60666696 9.80181826 3.81538596 8.6495744 1 5 C0.25 2.25 0.25 2.25 0 0 Z " fill="#6DC6D5" transform="translate(108,167)"/>
<path d="M0 0 C2.475 0.495 2.475 0.495 5 1 C6.00496852 4.01490557 6.10335303 6.04181692 6.0625 9.1875 C6.05347656 10.08855469 6.04445312 10.98960937 6.03515625 11.91796875 C6.02355469 12.60503906 6.01195312 13.29210937 6 14 C5.01 14.495 5.01 14.495 4 15 C3.96261719 14.41992188 3.92523438 13.83984375 3.88671875 13.2421875 C3.46096333 8.18321136 2.62861009 4.45720842 0 0 Z " fill="#74CADE" transform="translate(216,132)"/>
<path d="M0 0 C2.87184723 2.87184723 2.70422318 5.50481657 3.046875 9.4453125 C2.98391535 12.87661332 1.86719461 15.16186419 0 18 C-0.33 18 -0.66 18 -1 18 C-1.07272854 15.45450104 -1.03960715 13.18318306 -0.5 10.6875 C0.17147683 7.07831206 0.0621993 3.66975867 0 0 Z " fill="#183A63" transform="translate(314,248)"/>
<path d="M0 0 C0.66 0 1.32 0 2 0 C2.06058594 0.74765625 2.12117187 1.4953125 2.18359375 2.265625 C2.26738281 3.25046875 2.35117188 4.2353125 2.4375 5.25 C2.51871094 6.22453125 2.59992188 7.1990625 2.68359375 8.203125 C2.95074584 10.56461753 3.35371968 12.71901065 4 15 C2.05078125 14.34375 2.05078125 14.34375 0 13 C-0.64453125 10.46875 -0.64453125 10.46875 -0.8125 7.5 C-0.88082031 6.5203125 -0.94914063 5.540625 -1.01953125 4.53125 C-1 2 -1 2 0 0 Z " fill="#76AEEE" transform="translate(181,250)"/>
<path d="M0 0 C-0.804375 0.804375 -1.60875 1.60875 -2.4375 2.4375 C-5.66570248 6.2967109 -6.04523757 10.07815187 -6 15 C-5.6587012 17.90021751 -5.6587012 17.90021751 -5 20 C-7 19 -7 19 -8 16 C-8.43016786 10.74795051 -8.34737357 5.81211582 -6 1 C-2.71794872 -1.35897436 -2.71794872 -1.35897436 0 0 Z " fill="#8EDAEC" transform="translate(256,130)"/>
<path d="M0 0 C1.32 0 2.64 0 4 0 C4 0.99 4 1.98 4 3 C4.66 3 5.32 3 6 3 C6.33 3.66 6.66 4.32 7 5 C9.58605332 5.4683265 9.58605332 5.4683265 12.5625 5.625 C13.57441406 5.69976562 14.58632813 5.77453125 15.62890625 5.8515625 C16.80259766 5.92503906 16.80259766 5.92503906 18 6 C18 6.33 18 6.66 18 7 C6.44302909 7.76144025 6.44302909 7.76144025 3.0234375 5.95703125 C1.6875 4.625 1.6875 4.625 0 2 C0 1.34 0 0.68 0 0 Z " fill="#183658" transform="translate(288,265)"/>
<path d="M0 0 C0.66 0.33 1.32 0.66 2 1 C1.2575 1.4125 0.515 1.825 -0.25 2.25 C-3.05018571 3.86426778 -3.05018571 3.86426778 -5 6.1875 C-7 8 -7 8 -9.75 8.25 C-10.4925 8.1675 -11.235 8.085 -12 8 C-8.2646504 3.81188075 -5.22578394 1.77479455 0 0 Z M-10 9 C-8 10 -8 10 -8 10 Z " fill="#5A6A6F" transform="translate(129,329)"/>
<path d="M0 0 C0.66 0.33 1.32 0.66 2 1 C-3.75 6 -3.75 6 -6 6 C-6 6.66 -6 7.32 -6 8 C-7.8125 9.0625 -7.8125 9.0625 -10 10 C-10.99 9.67 -11.98 9.34 -13 9 C-12.34 8.67 -11.68 8.34 -11 8 C-11.33 7.34 -11.66 6.68 -12 6 C-10.35 6 -8.7 6 -7 6 C-7 5.01 -7 4.02 -7 3 C-6.21625 2.87625 -5.4325 2.7525 -4.625 2.625 C-1.85942178 2.20882007 -1.85942178 2.20882007 0 0 Z " fill="#88C6F1" transform="translate(381,175)"/>
<path d="M0 0 C1.40182371 2.61673759 2.60495559 5.0371669 3 8 C2.34 8.66 1.68 9.32 1 10 C0.01 9.67 -0.98 9.34 -2 9 C-1.67 8.34 -1.34 7.68 -1 7 C-1.66 7 -2.32 7 -3 7 C-1.125 2.25 -1.125 2.25 0 0 Z " fill="#5ABFDE" transform="translate(219,146)"/>
<path d="M0 0 C0.33 0.99 0.66 1.98 1 3 C0.34 3 -0.32 3 -1 3 C-0.938125 3.928125 -0.87625 4.85625 -0.8125 5.8125 C-1 9 -1 9 -2.5 10.875 C-3.2425 11.431875 -3.2425 11.431875 -4 12 C-4.144375 11.401875 -4.28875 10.80375 -4.4375 10.1875 C-4.8872439 8.43849596 -5.42892341 6.71322977 -6 5 C-5.38125 4.9175 -4.7625 4.835 -4.125 4.75 C-1.81562433 4.18741541 -1.81562433 4.18741541 -0.75 1.9375 C-0.5025 1.298125 -0.255 0.65875 0 0 Z " fill="#3F81EE" transform="translate(392,269)"/>
<path d="M0 0 C5.92013241 0.46737887 10.97466002 2.96208261 16 6 C16.33 6.66 16.66 7.32 17 8 C12.70788464 7.52309829 10.97916068 6.97916068 8 4 C5.67126625 3.31744011 3.33817209 2.64949225 1 2 C0.67 1.34 0.34 0.68 0 0 Z " fill="#87CAED" transform="translate(361,97)"/>
<path d="M0 0 C0 0.66 0 1.32 0 2 C-1.78881736 3.00508801 -3.58114696 4.00392736 -5.375 5 C-6.37273437 5.556875 -7.37046875 6.11375 -8.3984375 6.6875 C-11 8 -11 8 -13 8 C-12.67 7.01 -12.34 6.02 -12 5 C-11.01 5 -10.02 5 -9 5 C-9 4.34 -9 3.68 -9 3 C-3.375 0 -3.375 0 0 0 Z " fill="#4B83E1" transform="translate(284,311)"/>
<path d="M0 0 C0.928125 0.639375 1.85625 1.27875 2.8125 1.9375 C7.0459343 4.67678102 9.75071654 5.12057981 14.6875 5.0625 C15.68136719 5.05347656 16.67523438 5.04445312 17.69921875 5.03515625 C18.45847656 5.02355469 19.21773437 5.01195312 20 5 C19.67 5.66 19.34 6.32 19 7 C6.46017274 7.40163148 6.46017274 7.40163148 2 5 C0.625 2.375 0.625 2.375 0 0 Z " fill="#94DBE9" transform="translate(192,150)"/>
<path d="M0 0 C7.89031079 -0.30347349 7.89031079 -0.30347349 11 2 C12.25 4.125 12.25 4.125 13 6 C9.12265667 5.46148009 7.02404439 4.43874548 4 2 C2.68163705 1.30419733 1.35208914 0.62775567 0 0 Z " fill="#5392EC" transform="translate(124,296)"/>
<path d="M0 0 C5.10880829 -0.61658031 5.10880829 -0.61658031 8 0 C10.44303403 2.03926899 12.2277425 4.36846614 14 7 C13.67 7.66 13.34 8.32 13 9 C12.401875 8.360625 11.80375 7.72125 11.1875 7.0625 C9.09189663 4.79689611 9.09189663 4.79689611 6 4 C6 3.01 6 2.02 6 1 C4.02 1 2.04 1 0 1 C0 0.67 0 0.34 0 0 Z " fill="#79AFEE" transform="translate(248,239)"/>
<path d="M0 0 C4.49092377 2.37754788 7.52235713 5.3606063 11 9 C10.67 9.66 10.34 10.32 10 11 C9.21625 10.360625 8.4325 9.72125 7.625 9.0625 C5.20460719 7.01857687 5.20460719 7.01857687 3 6 C3 5.34 3 4.68 3 4 C2.34 4 1.68 4 1 4 C0.67 2.68 0.34 1.36 0 0 Z " fill="#8EBCF4" transform="translate(377,219)"/>
<path d="M0 0 C0.33 0.66 0.66 1.32 1 2 C0.67 2.66 0.34 3.32 0 4 C0.66 4.33 1.32 4.66 2 5 C-0.31 6.65 -2.62 8.3 -5 10 C-5 6.60406522 -4.47834052 5.93380119 -2.5 3.3125 C-2.0359375 2.68988281 -1.571875 2.06726563 -1.09375 1.42578125 C-0.7328125 0.95527344 -0.371875 0.48476562 0 0 Z " fill="#7AD1DE" transform="translate(110,112)"/>
<path d="M0 0 C4.62 0 9.24 0 14 0 C14.66 1.65 15.32 3.3 16 5 C11.25 3.125 11.25 3.125 9 2 C7.46331135 1.77532169 5.92031946 1.59203195 4.375 1.4375 C3.55773437 1.35371094 2.74046875 1.26992187 1.8984375 1.18359375 C1.27195313 1.12300781 0.64546875 1.06242187 0 1 C0 0.67 0 0.34 0 0 Z " fill="#87D3E5" transform="translate(200,126)"/>
<path d="M0 0 C0 3 0 3 -2.375 5.6875 C-5 8 -5 8 -7 8 C-7.33 6.68 -7.66 5.36 -8 4 C-6.865625 3.525625 -5.73125 3.05125 -4.5625 2.5625 C-1.24259834 1.36377917 -1.24259834 1.36377917 0 0 Z " fill="#56626C" transform="translate(176,399)"/>
<path d="M0 0 C0.9075 0.12375 1.815 0.2475 2.75 0.375 C2.0075 0.91125 1.265 1.4475 0.5 2 C-2.42674961 4.52764739 -4.23621339 7.09327368 -6.25 10.375 C-7 8.75 -7 8.75 -7.25 6.375 C-4.43089272 0.51125685 -4.43089272 0.51125685 0 0 Z " fill="#A1C9F3" transform="translate(242.25,241.625)"/>
<path d="M0 0 C2.37766027 0.86460374 4.72709494 1.77691456 7.0625 2.75 C7.0625 3.74 7.0625 4.73 7.0625 5.75 C6.0725 5.75 5.0825 5.75 4.0625 5.75 C3.7325 4.76 3.4025 3.77 3.0625 2.75 C0.0925 2.42 -2.8775 2.09 -5.9375 1.75 C-1.9375 -0.25 -1.9375 -0.25 0 0 Z " fill="#6BA4EC" transform="translate(201.9375,239.25)"/>
<path d="M0 0 C1.22156872 3.66470616 0.62833432 4.63237688 -0.8125 8.125 C-1.16957031 9.01445312 -1.52664063 9.90390625 -1.89453125 10.8203125 C-3 13 -3 13 -5 14 C-5 12.02 -5 10.04 -5 8 C-4.01 8 -3.02 8 -2 8 C-1.855625 6.865625 -1.71125 5.73125 -1.5625 4.5625 C-1 1 -1 1 0 0 Z " fill="#94CBF0" transform="translate(395,152)"/>
<path d="M0 0 C1.22156872 3.66470616 0.62833432 4.63237688 -0.8125 8.125 C-1.16957031 9.01445312 -1.52664063 9.90390625 -1.89453125 10.8203125 C-3 13 -3 13 -5 14 C-4.4140625 7.84765625 -4.4140625 7.84765625 -4 6 C-3.34 5.67 -2.68 5.34 -2 5 C-1.27840576 3.35636866 -0.60648579 1.68949614 0 0 Z " fill="#93C3F4" transform="translate(395,266)"/>
<path d="M0 0 C0.33 0 0.66 0 1 0 C1.03738281 0.67546875 1.07476562 1.3509375 1.11328125 2.046875 C1.17902344 2.93890625 1.24476563 3.8309375 1.3125 4.75 C1.37050781 5.63171875 1.42851562 6.5134375 1.48828125 7.421875 C2.0641181 10.32303774 3.07596148 11.79225607 5 14 C4.67 14.66 4.34 15.32 4 16 C2.015625 14.91796875 2.015625 14.91796875 0 13 C-0.390625 9.86328125 -0.390625 9.86328125 -0.25 6.3125 C-0.21390625 5.13300781 -0.1778125 3.95351562 -0.140625 2.73828125 C-0.09421875 1.83464844 -0.0478125 0.93101562 0 0 Z " fill="#B3D4F8" transform="translate(234,252)"/>
<path d="M0 0 C0.99 0.495 0.99 0.495 2 1 C2 1.66 2 2.32 2 3 C3.32 3.33 4.64 3.66 6 4 C6 4.66 6 5.32 6 6 C7.65 6.33 9.3 6.66 11 7 C9.3125 7.6875 9.3125 7.6875 7 8 C3.65097825 6.56470496 2.29937245 5.61300074 0.6875 2.3125 C0.460625 1.549375 0.23375 0.78625 0 0 Z " fill="#4480D8" transform="translate(285,265)"/>
<path d="M0 0 C0.66 0.33 1.32 0.66 2 1 C-0.33333333 3.33333333 -2.66666667 5.66666667 -5 8 C-5.99 7.67 -6.98 7.34 -8 7 C-5.36 4.69 -2.72 2.38 0 0 Z " fill="#122329" transform="translate(151,379)"/>
<path d="M0 0 C0.66 0 1.32 0 2 0 C2.33 2.31 2.66 4.62 3 7 C2.01 7.66 1.02 8.32 0 9 C-1.15941038 5.52176885 -0.70820884 3.54104422 0 0 Z " fill="#5A696E" transform="translate(230,328)"/>
<path d="M0 0 C1.32 0.33 2.64 0.66 4 1 C1.36 2.98 -1.28 4.96 -4 7 C-3.6875 4.625 -3.6875 4.625 -3 2 C-2.01 1.34 -1.02 0.68 0 0 Z " fill="#427CD3" transform="translate(290,241)"/>
<path d="M0 0 C2.98093122 2.5550839 4.52359755 5.38281401 6 9 C5.578125 11.19140625 5.578125 11.19140625 5 13 C4.15615325 11.58957044 3.32530504 10.17135868 2.5 8.75 C2.0359375 7.96109375 1.571875 7.1721875 1.09375 6.359375 C0 4 0 4 0 0 Z " fill="#9DC4F4" transform="translate(388,230)"/>
<path d="M0 0 C1.65 0 3.3 0 5 0 C5 0.66 5 1.32 5 2 C6.65 2.33 8.3 2.66 10 3 C9.01 4.485 9.01 4.485 8 6 C4.63408134 4.55746343 2.48952921 2.66735273 0 0 Z " fill="#88D2E1" transform="translate(115,177)"/>
<path d="M0 0 C0.33 0.66 0.66 1.32 1 2 C1.66 2.33 2.32 2.66 3 3 C0.6875 4.5625 0.6875 4.5625 -2 6 C-2.99 5.67 -3.98 5.34 -5 5 C-4.67 4.01 -4.34 3.02 -4 2 C-2.68 2 -1.36 2 0 2 C0 1.34 0 0.68 0 0 Z " fill="#7FAFED" transform="translate(270,317)"/>
<path d="M0 0 C0.66 0.99 1.32 1.98 2 3 C0.8125 5 0.8125 5 -1 7 C-3.6875 7.25 -3.6875 7.25 -6 7 C-5.34 6.01 -4.68 5.02 -4 4 C-3.01 4 -2.02 4 -1 4 C-0.67 2.68 -0.34 1.36 0 0 Z " fill="#3E7DE2" transform="translate(317,262)"/>
<path d="M0 0 C2.2477975 2.05233685 3.0022242 3.00667261 4 6 C3.5625 8.6875 3.5625 8.6875 3 11 C0.43383368 7.15075052 0.44902324 4.5650696 0 0 Z " fill="#4F8FE4" transform="translate(102,264)"/>
<path d="M0 0 C2.5 2.3125 2.5 2.3125 5 5 C5 5.99 5 6.98 5 8 C3.0625 7.375 3.0625 7.375 1 6 C0.25 2.875 0.25 2.875 0 0 Z " fill="#8CCAEE" transform="translate(384,110)"/>
<path d="M0 0 C2.64 0 5.28 0 8 0 C5.72204978 2.27795022 4.06212707 3.05219877 1 4 C-1.3125 3.625 -1.3125 3.625 -3 3 C-2.34 3 -1.68 3 -1 3 C-0.67 2.01 -0.34 1.02 0 0 Z " fill="#5B6569" transform="translate(155,411)"/>
<path d="M0 0 C0.66 0.33 1.32 0.66 2 1 C1.34 1.66 0.68 2.32 0 3 C0 3.99 0 4.98 0 6 C-1.32 6 -2.64 6 -4 6 C-2.84826645 3.53199953 -1.95216435 1.95216435 0 0 Z " fill="#617581" transform="translate(115,337)"/>
<path d="M0 0 C1.2065625 0.0309375 1.2065625 0.0309375 2.4375 0.0625 C-2.3125 5.8125 -2.3125 5.8125 -4.5625 8.0625 C-3.54737544 0.08652135 -3.54737544 0.08652135 0 0 Z " fill="#89D1E1" transform="translate(195.5625,127.9375)"/>
<path d="M0 0 C0.66 0.33 1.32 0.66 2 1 C0.68 2.32 -0.64 3.64 -2 5 C-2 2 -2 2 0 0 Z M-6 4 C-5.01 4.33 -4.02 4.66 -3 5 C-4.65 5.66 -6.3 6.32 -8 7 C-7.34 6.01 -6.68 5.02 -6 4 Z " fill="#41BFD0" transform="translate(121,105)"/>
<path d="M0 0 C4.21912747 0.4794463 6.79663178 1.16625119 10 4 C7.69 4 5.38 4 3 4 C3 3.34 3 2.68 3 2 C2.01 1.34 1.02 0.68 0 0 Z " fill="#8EBDF4" transform="translate(362,212)"/>
<path d="M0 0 C0 0.66 0 1.32 0 2 C1.32 2.33 2.64 2.66 4 3 C0.7 3 -2.6 3 -6 3 C-4.60722783 0.21445565 -3.01148006 0 0 0 Z " fill="#4ABDCD" transform="translate(207,123)"/>
<path d="M0 0 C0.99 0.33 1.98 0.66 3 1 C1.73058503 4.91402949 0.48832306 6.79072873 -3 9 C-2.01 6.03 -1.02 3.06 0 0 Z " fill="#8BCDF3" transform="translate(387,165)"/>
<path d="M0 0 C2.64 1.65 5.28 3.3 8 5 C4.37673261 6.2077558 3.35853631 5.54311128 0 4 C0 2.68 0 1.36 0 0 Z " fill="#7ACFE9" transform="translate(251,150)"/>
<path d="M0 0 C0.66 0.33 1.32 0.66 2 1 C-0.25 3.0625 -0.25 3.0625 -3 5 C-5.3125 4.75 -5.3125 4.75 -7 4 C-1.7265625 0.77734375 -1.7265625 0.77734375 0 0 Z " fill="#85D5DF" transform="translate(127,99)"/>
</svg>
